<svg id="visual" viewBox="0 0 960 540" preserveAspectRatio="none" xmlns="http://www.w3.org/2000/svg" xmlns:xlink="http://www.w3.org/1999/xlink" version="1.1"><rect x="0" y="0" width="960" height="540" fill="#0066FF"></rect><path d="M0 513L14.5 513.3C29 513.7 58 514.3 87.2 515C116.3 515.7 145.7 516.3 174.8 515.7C204 515 233 513 262 510.5C291 508 320 505 349 506.8C378 508.7 407 515.3 436.2 518.2C465.3 521 494.7 520 523.8 517.5C553 515 582 511 611 511C640 511 669 515 698 517.2C727 519.3 756 519.7 785.2 519.5C814.3 519.3 843.7 518.7 872.8 516C902 513.3 931 508.7 945.5 506.3L960 504L960 541L945.5 541C931 541 902 541 872.8 541C843.7 541 814.3 541 785.2 541C756 541 727 541 698 541C669 541 640 541 611 541C582 541 553 541 523.8 541C494.7 541 465.3 541 436.2 541C407 541 378 541 349 541C320 541 291 541 262 541C233 541 204 541 174.8 541C145.7 541 116.3 541 87.2 541C58 541 29 541 14.5 541L0 541Z" fill="#404040" stroke-linecap="round" stroke-linejoin="miter"></path></svg>