<svg id="visual" viewBox="0 0 960 540" preserveAspectRatio="none" xmlns="http://www.w3.org/2000/svg" xmlns:xlink="http://www.w3.org/1999/xlink" version="1.1"><rect x="0" y="0" width="960" height="540" fill="#404040"></rect><path d="M0 504L14.5 504.2C29 504.3 58 504.7 87.2 504.8C116.3 505 145.7 505 174.8 505.8C204 506.7 233 508.3 262 511.3C291 514.3 320 518.7 349 520C378 521.3 407 519.7 436.2 516.5C465.3 513.3 494.7 508.7 523.8 506.3C553 504 582 504 611 505.8C640 507.7 669 511.3 698 512.3C727 513.3 756 511.7 785.2 509.5C814.3 507.3 843.7 504.7 872.8 506.2C902 507.7 931 513.3 945.5 516.2L960 519L960 541L945.5 541C931 541 902 541 872.8 541C843.7 541 814.3 541 785.2 541C756 541 727 541 698 541C669 541 640 541 611 541C582 541 553 541 523.8 541C494.7 541 465.3 541 436.2 541C407 541 378 541 349 541C320 541 291 541 262 541C233 541 204 541 174.8 541C145.7 541 116.3 541 87.2 541C58 541 29 541 14.5 541L0 541Z" fill="#202020" stroke-linecap="round" stroke-linejoin="miter"></path></svg>