<svg id="visual" viewBox="0 0 960 540" preserveAspectRatio="none" xmlns="http://www.w3.org/2000/svg" xmlns:xlink="http://www.w3.org/1999/xlink" version="1.1"><rect x="0" y="0" width="960" height="540" fill="#404040"></rect><path d="M0 229L14.5 261C29 293 58 357 87.2 382.7C116.3 408.3 145.7 395.7 174.8 381C204 366.3 233 349.7 262 352.8C291 356 320 379 349 401.7C378 424.3 407 446.7 436.2 417.3C465.3 388 494.7 307 523.8 295C553 283 582 340 611 368.7C640 397.3 669 397.7 698 373.5C727 349.3 756 300.7 785.2 310.7C814.3 320.7 843.7 389.3 872.8 402.7C902 416 931 374 945.5 353L960 332L960 541L945.5 541C931 541 902 541 872.8 541C843.7 541 814.3 541 785.2 541C756 541 727 541 698 541C669 541 640 541 611 541C582 541 553 541 523.8 541C494.7 541 465.3 541 436.2 541C407 541 378 541 349 541C320 541 291 541 262 541C233 541 204 541 174.8 541C145.7 541 116.3 541 87.2 541C58 541 29 541 14.5 541L0 541Z" fill="#202020" stroke-linecap="round" stroke-linejoin="miter"></path></svg>