<?xml version="1.0" encoding="UTF-8"?><svg id="Lag_1" xmlns="http://www.w3.org/2000/svg" width="1539.568" height="273.6613" viewBox="0 0 1539.568 273.6613"><defs><style>.cls-1{fill:#fff;}</style></defs><rect class="cls-1" x="149.9229" y="-13.4193" width="100" height="300" rx="50" ry="50" transform="translate(95.0749 -81.6631) rotate(30)"/><rect class="cls-1" x="276.8139" y="-13.4193" width="100" height="300" rx="50" ry="50" transform="translate(541.5527 418.27) rotate(-150)"/><rect class="cls-1" x="536.8163" y="0" width="100" height="273.1613" rx="50" ry="50"/><circle class="cls-1" cx="872.0905" cy="136.5807" r="136.5806"/><path class="cls-1" d="M1261.8921,248.2001c-9.23,16-26.12,24.96-43.4401,24.96-8.47,0-17.0399-2.14-24.8599-6.66l-149.96-86.58c-7.3601-4.25-13.2301-10.11-17.4102-16.9-.2899-.45-.5599-.91-.83-1.3799-.15-.26-.2999-.52-.4401-.78-.2-.35-.3899-.7-.5698-1.06-.26-.49-.5-.98-.75-1.47-3.02-6.3199-4.7101-13.22-4.9302-20.23-.0399-1.01-.0399-2.03,0-3.04,.2201-7.01,1.9102-13.91,4.9302-20.23,.24-.49,.48-.98,.75-1.47,.1799-.36,.3699-.71,.5698-1.06,.1201-.23,.25-.45,.3801-.68,.02-.03,.04-.07,.0599-.1,.27-.47,.54-.93,.83-1.3799,4.1801-6.79,10.05-12.65,17.4102-16.9L1193.5921,6.66c23.8199-13.75,54.5499-5.51,68.2999,18.3,4.52,7.82,6.66,16.39,6.66,24.86,0,17.32-8.96,34.21-24.96,43.44l-75.03,43.3199,75.03,43.32c23.8199,13.75,32.0499,44.48,18.2999,68.3Z"/><rect class="cls-1" x="1359.055" y="-31.8512" width="100" height="336" rx="49.9999" ry="49.9999" transform="translate(286.6564 998.8156) rotate(-43.0646)"/><g><path class="cls-1" d="M193.2627,198.1833l-43.3206-75.0334-43.3206,75.0334c-9.3519,16.198-8.5242,35.5922,.4492,50.671,.2024,.3382,.4066,.6747,.6158,1.0065,.1946,.3101,.3936,.6176,.5952,.9238,.306,.4623,.6172,.9193,.9364,1.3683,.1235,.1746,.2476,.3488,.3734,.5219,.4271,.5847,.8627,1.1606,1.3116,1.7219,.0287,.0361,.0572,.0724,.086,.1085,9.2252,11.4691,22.9213,18.0132,37.0903,18.5854,.418,.0142,.8362,.0361,1.2539,.0399,.2993,.0046,.599,.0003,.8986-.0004,14.9879-.1354,29.6144-6.9713,39.1751-19.2711l.014-.0176c.6718-.8651,1.3168-1.7589,1.937-2.6774,.0696-.1038,.1339-.2104,.2028-.3146,.4691-.7062,.9169-1.433,1.3539-2.1699,8.8765-15.0538,9.664-34.3603,.348-50.4961Z"/><path class="cls-1" d="M97.9614,193.1833l46.2073-80.0334L93.2627,24.9781C79.5127,1.1624,48.7772-7.0731,24.9615,6.6768h-.0001C1.1457,20.4269-7.0898,51.1624,6.6601,74.9781L90.0598,219.4306c.5477-8.9709,3.1107-17.9494,7.9016-26.2473Z"/></g><g><path class="cls-1" d="M520.0767,198.1833L436.6786,53.7335c-.5479,9.1516-3.1946,18.1041-7.8958,26.2467l-46.2104,80.0388,50.9017,88.1644c13.7499,23.8157,44.4855,32.0512,68.3011,18.3012h.0001c23.8157-13.75,32.0512-44.4855,18.3013-68.3012Z"/><path class="cls-1" d="M419.7766,24.4878c-.2741-.4625-.5524-.9211-.8392-1.3716-.125-.1973-.2518-.3936-.3797-.5892-.3798-.5782-.7673-1.1487-1.1676-1.7062-.0495-.0693-.0988-.1387-.1486-.2076C408.0646,7.9667,393.6862,.7122,378.771,.0761c-.4749-.0172-.9499-.0416-1.4244-.0452-.2561-.0037-.5126,0-.7689,.0004-17.0642,.1322-33.6609,8.963-42.8647,24.6395-8.7723,15.0264-9.5161,34.2386-.2389,50.3073l43.3248,75.0408,43.3236-75.0388c9.3152-16.1344,8.5285-35.439-.3459-50.4924Z"/></g><g><path class="cls-1" d="M636.8637,223.6614v-51.0001h-50.0474c-27.5,0-49.9999,22.5-49.9999,49.9999h0c0,27.5001,22.4999,50.0001,49.9999,50.0001h9.9774c22.7854-4.6387,40.07-24.8975,40.07-48.9999Z"/><path class="cls-1" d="M696.8163,172.6613h-49.9526v51.0001c0,20.2213-10.0654,38.1246-25.4383,48.9999h75.3909c27.5,0,50-22.5,50-49.9999h0c0-27.5001-22.5-50.0001-50-50.0001Z"/></g><g><path class="cls-1" d="M1038.6322,84.5798l78.8141-45.5037c-5.0195-22.2902-25.0259-39.0761-48.7751-39.0761h0c-27.5,0-50,22.5-50,50v53.4348c5.0706-7.7089,11.9252-14.2148,19.9611-18.855Z"/><path class="cls-1" d="M1026.222,110.1401c-.2899,.45-.5599,.91-.83,1.3799-.0199,.03-.0399,.07-.0599,.1-.1301,.23-.26,.45-.3801,.68-.2,.35-.3899,.7-.5698,1.06-.27,.49-.51,.98-.75,1.47-3.02,6.32-4.7101,13.22-4.9302,20.23-.0399,1.01-.0399,2.03,0,3.04,.2201,7.01,1.9102,13.91,4.9302,20.23,.25,.4901,.49,.98,.75,1.47,.1799,.36,.3699,.71,.5698,1.06,.1401,.26,.29,.52,.4401,.78,.27,.47,.54,.93,.83,1.3799,4.1801,6.79,10.05,12.65,17.4102,16.9l75.0369,43.3229c.0001-.0273,.0021-.0542,.0021-.0815V50c0-.0278-.0021-.0551-.0022-.0828l-75.0367,43.3228c-7.3601,4.25-13.2301,10.11-17.4102,16.9001Z"/><path class="cls-1" d="M1038.6316,188.58c-8.0353-4.6399-14.8899-11.1458-19.9604-18.8547v53.4361c0,27.4999,22.5,49.9999,50,49.9999h0c23.7498,0,43.7565-16.7866,48.7754-39.0773l-78.8149-45.5041Z"/></g><g><path class="cls-1" d="M1539.5529,223.6613c0-27.4999-22.5-49.9999-49.9999-49.9999h-113.7228l77.3506,82.761c9.8071,10.4931,23.1655,15.7987,36.5542,15.7987,12.2463,0,24.5182-4.4402,34.1161-13.4106h.0001c9.3606-8.7487,14.5886-20.325,15.6088-32.2263,.0565-.968,.0929-1.9412,.0929-2.9227h0Z"/><path class="cls-1" d="M1445.8751,263.2506l-83.7324-89.5893h-33.6007c-27.4999,0-49.9999,22.5-49.9999,49.9999h0c0,27.5001,22.5,50.0001,49.9999,50.0001h130.2825c-4.7498-2.8376-9.126-6.3199-12.9493-10.4107Z"/></g><g><path class="cls-1" d="M1443.8613,100.0001l-78.7683-84.278c-9.1465-9.7863-21.3824-15.0563-33.8506-15.7221h-2.7004c-21.4248,0-39.8113,13.6586-46.8909,32.697-.0574,.158-.1145,.3159-.1702,.4744-.1506,.4181-.2903,.841-.4299,1.2641-5.3823,16.7427-1.8151,35.8749,10.9836,49.569l1.4495,1.5507c9.0417,8.9171,21.4337,14.4448,35.0579,14.4448h115.3193Z"/><path class="cls-1" d="M1372.3989,8.8939l85.1501,91.1061h32.004c27.5,0,49.9999-22.5,49.9999-50h0C1539.5529,22.5,1517.0531,0,1489.5531,0h-127.6969c3.823,2.5374,7.3745,5.5041,10.5427,8.8939Z"/></g></svg>