<svg id="visual" viewBox="0 0 900 100" preserveAspectRatio="none" xmlns="http://www.w3.org/2000/svg" xmlns:xlink="http://www.w3.org/1999/xlink" version="1.1"><rect x="0" y="0" width="900" height="100" fill="#002233"></rect><path d="M0 39L100 39L100 28L200 28L200 23L300 23L300 36L400 36L400 37L500 37L500 23L600 23L600 22L700 22L700 16L800 16L800 41L900 41L900 26L900 101L900 101L800 101L800 101L700 101L700 101L600 101L600 101L500 101L500 101L400 101L400 101L300 101L300 101L200 101L200 101L100 101L100 101L0 101Z" fill="#002233"></path><path d="M0 43L100 43L100 62L200 62L200 60L300 60L300 51L400 51L400 49L500 49L500 60L600 60L600 43L700 43L700 53L800 53L800 43L900 43L900 40L900 101L900 101L800 101L800 101L700 101L700 101L600 101L600 101L500 101L500 101L400 101L400 101L300 101L300 101L200 101L200 101L100 101L100 101L0 101Z" fill="#004b99"></path><path d="M0 64L100 64L100 81L200 81L200 75L300 75L300 76L400 76L400 78L500 78L500 76L600 76L600 83L700 83L700 67L800 67L800 70L900 70L900 86L900 101L900 101L800 101L800 101L700 101L700 101L600 101L600 101L500 101L500 101L400 101L400 101L300 101L300 101L200 101L200 101L100 101L100 101L0 101Z" fill="#0066ff"></path></svg>