<svg id="visual" viewBox="0 0 900 600" preserveAspectRatio="none" xmlns="http://www.w3.org/2000/svg" xmlns:xlink="http://www.w3.org/1999/xlink" version="1.1"><rect x="0" y="0" width="900" height="600" fill="#002233"></rect><path d="M0 462L100 462L100 497L200 497L200 484L300 484L300 485L400 485L400 449L500 449L500 497L600 497L600 500L700 500L700 474L800 474L800 493L900 493L900 464L900 601L900 601L800 601L800 601L700 601L700 601L600 601L600 601L500 601L500 601L400 601L400 601L300 601L300 601L200 601L200 601L100 601L100 601L0 601Z" fill="#002233"></path><path d="M0 534L100 534L100 500L200 500L200 534L300 534L300 510L400 510L400 518L500 518L500 540L600 540L600 525L700 525L700 491L800 491L800 504L900 504L900 505L900 601L900 601L800 601L800 601L700 601L700 601L600 601L600 601L500 601L500 601L400 601L400 601L300 601L300 601L200 601L200 601L100 601L100 601L0 601Z" fill="#004b99"></path><path d="M0 542L100 542L100 539L200 539L200 566L300 566L300 556L400 556L400 550L500 550L500 561L600 561L600 548L700 548L700 571L800 571L800 560L900 560L900 532L900 601L900 601L800 601L800 601L700 601L700 601L600 601L600 601L500 601L500 601L400 601L400 601L300 601L300 601L200 601L200 601L100 601L100 601L0 601Z" fill="#0066ff"></path></svg>