<svg id="visual" viewBox="0 0 900 600" preserveAspectRatio="none" xmlns="http://www.w3.org/2000/svg" xmlns:xlink="http://www.w3.org/1999/xlink" version="1.1"><rect x="0" y="0" width="900" height="600" fill="#002233"></rect><path d="M0 106L100 106L100 128L200 128L200 136L300 136L300 112L400 112L400 110L500 110L500 135L600 135L600 138L700 138L700 148L800 148L800 104L900 104L900 131L900 0L900 0L800 0L800 0L700 0L700 0L600 0L600 0L500 0L500 0L400 0L400 0L300 0L300 0L200 0L200 0L100 0L100 0L0 0Z" fill="#002233"></path><path d="M0 101L100 101L100 65L200 65L200 69L300 69L300 85L400 85L400 89L500 89L500 68L600 68L600 100L700 100L700 82L800 82L800 100L900 100L900 105L900 0L900 0L800 0L800 0L700 0L700 0L600 0L600 0L500 0L500 0L400 0L400 0L300 0L300 0L200 0L200 0L100 0L100 0L0 0Z" fill="#004b99"></path><path d="M0 61L100 61L100 31L200 31L200 42L300 42L300 41L400 41L400 37L500 37L500 41L600 41L600 27L700 27L700 56L800 56L800 51L900 51L900 22L900 0L900 0L800 0L800 0L700 0L700 0L600 0L600 0L500 0L500 0L400 0L400 0L300 0L300 0L200 0L200 0L100 0L100 0L0 0Z" fill="#0066ff"></path></svg>