<svg id="visual" viewBox="0 0 960 540" width="960" height="540" xmlns="http://www.w3.org/2000/svg" xmlns:xlink="http://www.w3.org/1999/xlink" version="1.1"><rect width="960" height="540" fill="#101010"></rect><g><g transform="translate(158 441)"><path d="M0 -70L54.7 -43.6L68.2 15.6L30.4 63.1L-30.4 63.1L-68.2 15.6L-54.7 -43.6Z" stroke="#297EA6" fill="none" stroke-width="3"></path></g><g transform="translate(245 229)"><path d="M0 -50L39.1 -31.2L48.7 11.1L21.7 45L-21.7 45L-48.7 11.1L-39.1 -31.2Z" stroke="#297EA6" fill="none" stroke-width="3"></path></g><g transform="translate(713 229)"><path d="M0 -50L39.1 -31.2L48.7 11.1L21.7 45L-21.7 45L-48.7 11.1L-39.1 -31.2Z" stroke="#297EA6" fill="none" stroke-width="3"></path></g><g transform="translate(440 283)"><path d="M0 -33L25.8 -20.6L32.2 7.3L14.3 29.7L-14.3 29.7L-32.2 7.3L-25.8 -20.6Z" stroke="#297EA6" fill="none" stroke-width="3"></path></g><g transform="translate(586 160)"><path d="M0 -40L31.3 -24.9L39 8.9L17.4 36L-17.4 36L-39 8.9L-31.3 -24.9Z" stroke="#297EA6" fill="none" stroke-width="3"></path></g><g transform="translate(84 291)"><path d="M0 -60L46.9 -37.4L58.5 13.4L26 54.1L-26 54.1L-58.5 13.4L-46.9 -37.4Z" stroke="#297EA6" fill="none" stroke-width="3"></path></g><g transform="translate(553 420)"><path d="M0 -52L40.7 -32.4L50.7 11.6L22.6 46.9L-22.6 46.9L-50.7 11.6L-40.7 -32.4Z" stroke="#297EA6" fill="none" stroke-width="3"></path></g><g transform="translate(875 241)"><path d="M0 -29L22.7 -18.1L28.3 6.5L12.6 26.1L-12.6 26.1L-28.3 6.5L-22.7 -18.1Z" stroke="#297EA6" fill="none" stroke-width="3"></path></g><g transform="translate(856 447)"><path d="M0 -32L25 -20L31.2 7.1L13.9 28.8L-13.9 28.8L-31.2 7.1L-25 -20Z" stroke="#297EA6" fill="none" stroke-width="3"></path></g></g></svg>