<svg id="visual" viewBox="0 0 900 600" preserveAspectRatio="none" xmlns="http://www.w3.org/2000/svg" xmlns:xlink="http://www.w3.org/1999/xlink" version="1.1"><rect x="0" y="0" width="900" height="600" fill="#0066FF"></rect><path d="M0 568L7.8 572.2C15.7 576.3 31.3 584.7 47.2 581.2C63 577.7 79 562.3 94.8 554.2C110.7 546 126.3 545 142 546C157.7 547 173.3 550 189.2 558C205 566 221 579 236.8 577.2C252.7 575.3 268.3 558.7 284.2 551.2C300 543.7 316 545.3 331.8 553.2C347.7 561 363.3 575 379 582C394.7 589 410.3 589 426.2 589.3C442 589.7 458 590.3 473.8 582.3C489.7 574.3 505.3 557.7 521 550.5C536.7 543.3 552.3 545.7 568.2 550.5C584 555.3 600 562.7 615.8 566.3C631.7 570 647.3 570 663.2 570.7C679 571.3 695 572.7 710.8 569C726.7 565.3 742.3 556.7 758 560.2C773.7 563.7 789.3 579.3 805.2 582.8C821 586.3 837 577.7 852.8 575.2C868.7 572.7 884.3 576.3 892.2 578.2L900 580L900 601L892.2 601C884.3 601 868.7 601 852.8 601C837 601 821 601 805.2 601C789.3 601 773.7 601 758 601C742.3 601 726.7 601 710.8 601C695 601 679 601 663.2 601C647.3 601 631.7 601 615.8 601C600 601 584 601 568.2 601C552.3 601 536.7 601 521 601C505.3 601 489.7 601 473.8 601C458 601 442 601 426.2 601C410.3 601 394.7 601 379 601C363.3 601 347.7 601 331.8 601C316 601 300 601 284.2 601C268.3 601 252.7 601 236.8 601C221 601 205 601 189.2 601C173.3 601 157.7 601 142 601C126.3 601 110.7 601 94.8 601C79 601 63 601 47.2 601C31.3 601 15.7 601 7.8 601L0 601Z" fill="#202020" stroke-linecap="round" stroke-linejoin="miter"></path></svg>