<svg id="visual" viewBox="0 0 900 600" preserveAspectRatio="none" xmlns="http://www.w3.org/2000/svg" xmlns:xlink="http://www.w3.org/1999/xlink" version="1.1"><rect x="0" y="0" width="900" height="600" fill="#002233"></rect><path d="M0 555L15 552.5C30 550 60 545 90 544.3C120 543.7 150 547.3 180 556.3C210 565.3 240 579.7 270 577.7C300 575.7 330 557.3 360 557.5C390 557.7 420 576.3 450 578.3C480 580.3 510 565.7 540 557.3C570 549 600 547 630 549.5C660 552 690 559 720 558C750 557 780 548 810 551.2C840 554.3 870 569.7 885 577.3L900 585L900 601L885 601C870 601 840 601 810 601C780 601 750 601 720 601C690 601 660 601 630 601C600 601 570 601 540 601C510 601 480 601 450 601C420 601 390 601 360 601C330 601 300 601 270 601C240 601 210 601 180 601C150 601 120 601 90 601C60 601 30 601 15 601L0 601Z" fill="#0066FF" stroke-linecap="round" stroke-linejoin="miter"></path></svg>