<svg id="visual" viewBox="0 0 960 540" width="960" height="540" xmlns="http://www.w3.org/2000/svg" xmlns:xlink="http://www.w3.org/1999/xlink" version="1.1"><rect width="960" height="540" fill="#101010"></rect><g><g transform="translate(329 295)"><path d="M0 -70L54.7 -43.6L68.2 15.6L30.4 63.1L-30.4 63.1L-68.2 15.6L-54.7 -43.6Z" stroke="#297EA6" fill="none" stroke-width="3"></path></g><g transform="translate(455 417)"><path d="M0 -35L27.4 -21.8L34.1 7.8L15.2 31.5L-15.2 31.5L-34.1 7.8L-27.4 -21.8Z" stroke="#297EA6" fill="none" stroke-width="3"></path></g><g transform="translate(479 145)"><path d="M0 -53L41.4 -33L51.7 11.8L23 47.8L-23 47.8L-51.7 11.8L-41.4 -33Z" stroke="#297EA6" fill="none" stroke-width="3"></path></g><g transform="translate(874 395)"><path d="M0 -39L30.5 -24.3L38 8.7L16.9 35.1L-16.9 35.1L-38 8.7L-30.5 -24.3Z" stroke="#297EA6" fill="none" stroke-width="3"></path></g><g transform="translate(256 166)"><path d="M0 -44L34.4 -27.4L42.9 9.8L19.1 39.6L-19.1 39.6L-42.9 9.8L-34.4 -27.4Z" stroke="#297EA6" fill="none" stroke-width="3"></path></g><g transform="translate(639 299)"><path d="M0 -61L47.7 -38L59.5 13.6L26.5 55L-26.5 55L-59.5 13.6L-47.7 -38Z" stroke="#297EA6" fill="none" stroke-width="3"></path></g><g transform="translate(633 137)"><path d="M0 -48L37.5 -29.9L46.8 10.7L20.8 43.2L-20.8 43.2L-46.8 10.7L-37.5 -29.9Z" stroke="#297EA6" fill="none" stroke-width="3"></path></g><g transform="translate(72 284)"><path d="M0 -59L46.1 -36.8L57.5 13.1L25.6 53.2L-25.6 53.2L-57.5 13.1L-46.1 -36.8Z" stroke="#297EA6" fill="none" stroke-width="3"></path></g><g transform="translate(86 85)"><path d="M0 -38L29.7 -23.7L37 8.5L16.5 34.2L-16.5 34.2L-37 8.5L-29.7 -23.7Z" stroke="#297EA6" fill="none" stroke-width="3"></path></g></g></svg>