<svg id="visual" viewBox="0 0 900 600" preserveAspectRatio="none" xmlns="http://www.w3.org/2000/svg" xmlns:xlink="http://www.w3.org/1999/xlink" version="1.1"><rect x="0" y="0" width="900" height="600" fill="#002233"></rect><path d="M0 552L8.8 547C17.7 542 35.3 532 53 530.2C70.7 528.3 88.3 534.7 106 535.5C123.7 536.3 141.3 531.7 159 530C176.7 528.3 194.3 529.7 212 534.2C229.7 538.7 247.3 546.3 265 546.3C282.7 546.3 300.3 538.7 318 535.7C335.7 532.7 353.3 534.3 371 533.5C388.7 532.7 406.3 529.3 423.8 531.3C441.3 533.3 458.7 540.7 476.2 539.8C493.7 539 511.3 530 529 528.7C546.7 527.3 564.3 533.7 582 533C599.7 532.3 617.3 524.7 635 523.2C652.7 521.7 670.3 526.3 688 532.5C705.7 538.7 723.3 546.3 741 549C758.7 551.7 776.3 549.3 794 548C811.7 546.7 829.3 546.3 847 548C864.7 549.7 882.3 553.3 891.2 555.2L900 557L900 601L891.2 601C882.3 601 864.7 601 847 601C829.3 601 811.7 601 794 601C776.3 601 758.7 601 741 601C723.3 601 705.7 601 688 601C670.3 601 652.7 601 635 601C617.3 601 599.7 601 582 601C564.3 601 546.7 601 529 601C511.3 601 493.7 601 476.2 601C458.7 601 441.3 601 423.8 601C406.3 601 388.7 601 371 601C353.3 601 335.7 601 318 601C300.3 601 282.7 601 265 601C247.3 601 229.7 601 212 601C194.3 601 176.7 601 159 601C141.3 601 123.7 601 106 601C88.3 601 70.7 601 53 601C35.3 601 17.7 601 8.8 601L0 601Z" fill="#0066FF" stroke-linecap="round" stroke-linejoin="miter"></path></svg>